<?xml version="1.0" encoding="UTF-8"?><svg xmlns="http://www.w3.org/2000/svg" xmlns:xlink="http://www.w3.org/1999/xlink" height="367.5" preserveAspectRatio="xMidYMid meet" version="1.0" viewBox="100.6 27.0 224.1 367.5" width="224.1" zoomAndPan="magnify"><g><g><path d="M 152.039062 193.136719 C 155.835938 219.132812 154.894531 237.84375 155.53125 258.886719 C 155.800781 267.667969 135.460938 277.714844 134.5 269.628906 C 131.746094 246.4375 121.710938 214.019531 118.195312 189.433594 C 117.039062 181.375 127.898438 171.75 138.574219 175.6875 C 147.1875 178.863281 151.277344 187.929688 152.039062 193.136719" fill="#f9aa78"/></g><g><path d="M 135.105469 332.953125 C 136.589844 334.089844 138.335938 337.148438 140.347656 337.152344 C 142.175781 337.152344 143.804688 336.230469 145.605469 336.226562 C 147.386719 336.21875 148.453125 336.796875 149.925781 337.6875 C 151.503906 338.652344 153.269531 338.222656 154.285156 337.097656 C 152.296875 335.75 150.679688 334.601562 150.207031 334.253906 C 149.5625 333.785156 148.519531 334.371094 147.292969 334.957031 C 146.242188 335.457031 145.058594 335.960938 143.875 335.796875 C 141.304688 335.441406 138.105469 331.914062 137.371094 331.851562 C 136.636719 331.785156 134.472656 332.847656 134.472656 332.847656 C 134.472656 332.847656 134.476562 332.914062 134.476562 333.023438 C 134.617188 332.851562 134.867188 332.773438 135.105469 332.953125" fill="#171417"/></g><g><path d="M 150.269531 241.316406 C 150.269531 241.316406 156.726562 248.40625 154.9375 260.632812 C 150.867188 274.011719 146.371094 311.890625 146.640625 331.496094 C 146.675781 334.300781 156.285156 338.96875 161.71875 342.011719 C 167.152344 345.058594 163.183594 349.609375 162.335938 350.414062 C 158.425781 354.136719 133.496094 346.496094 135.085938 335.082031 C 137.1875 319.980469 132.179688 306.355469 132.480469 273.3125 C 132.589844 261.324219 132.308594 252.53125 133.105469 247.074219 C 135.4375 231.140625 150.269531 241.316406 150.269531 241.316406" fill="#f9aa78"/></g><g><path d="M 135.730469 326.773438 L 146.660156 327.320312 C 146.632812 328.78125 146.617188 330.183594 146.640625 331.496094 C 146.675781 334.300781 156.285156 338.96875 161.71875 342.011719 C 167.152344 345.058594 163.183594 349.609375 162.335938 350.414062 C 158.425781 354.136719 133.496094 346.496094 135.085938 335.082031 C 135.476562 332.265625 135.675781 329.546875 135.730469 326.773438" fill="#fff"/></g><g><path d="M 131.804688 341.902344 C 132.628906 339.152344 134.050781 336.375 134.21875 335.675781 C 134.375 335.054688 134.4375 334.34375 134.460938 333.785156 C 134.605469 333.835938 134.726562 333.910156 134.894531 333.933594 C 136.871094 334.164062 138.347656 335.941406 140.238281 336.613281 C 141.375 337.015625 142.652344 337.011719 143.886719 337.007812 C 144.359375 337.007812 144.824219 337.007812 145.273438 337.027344 C 146.863281 337.101562 148.0625 337.019531 149.121094 336.644531 C 148.652344 335.492188 150.414062 334.402344 151.488281 335.167969 C 151.539062 335.121094 152.070312 335.527344 152.597656 335.933594 C 153.125 336.335938 153.652344 336.742188 153.691406 336.695312 C 156.820312 338.832031 161.175781 341.65625 163.433594 342.480469 C 166.265625 343.511719 169.628906 344.328125 171.910156 344.839844 C 173.816406 345.265625 174.0625 347.453125 174.0625 347.453125 C 174.0625 347.453125 172.9375 351.742188 170.984375 352.441406 C 169.324219 353.035156 161.726562 353.953125 157.808594 353.480469 C 153.882812 353.003906 147.070312 349.960938 145.269531 349.304688 C 143.472656 348.644531 136.652344 348.65625 135.683594 348.445312 C 134.710938 348.238281 131.996094 345.539062 131.996094 345.539062 C 131.996094 345.539062 131.378906 343.324219 131.804688 341.902344" fill="#65bed9"/></g><g><path d="M 160.890625 341.605469 C 160.890625 341.78125 160.867188 341.964844 160.804688 342.144531 C 160.035156 344.335938 158.347656 343.761719 159.015625 344.507812 C 159.707031 345.265625 161.265625 343.503906 161.601562 342.460938 C 161.644531 342.320312 161.6875 342.167969 161.71875 342.011719 C 161.449219 341.851562 161.1875 341.679688 160.890625 341.605469" fill="#bdbcbc"/></g><g><path d="M 159.121094 340.664062 C 159.0625 340.835938 158.988281 341 158.871094 341.148438 C 157.472656 343.003906 156.039062 341.941406 156.449219 342.855469 C 156.882812 343.789062 158.898438 342.585938 159.535156 341.691406 C 159.621094 341.570312 159.707031 341.441406 159.78125 341.308594 C 159.574219 341.066406 159.375 340.824219 159.121094 340.664062" fill="#bdbcbc"/></g><g><path d="M 157.34375 339.40625 C 157.28125 339.574219 157.207031 339.738281 157.089844 339.890625 C 155.691406 341.746094 154.257812 340.679688 154.671875 341.59375 C 155.101562 342.53125 157.117188 341.324219 157.757812 340.433594 C 157.839844 340.3125 157.925781 340.183594 158.003906 340.042969 C 157.800781 339.804688 157.597656 339.558594 157.34375 339.40625" fill="#bdbcbc"/></g><g><path d="M 155.230469 338.054688 C 155.171875 338.226562 155.097656 338.390625 154.980469 338.542969 C 153.578125 340.394531 152.148438 339.335938 152.5625 340.25 C 152.988281 341.183594 155.007812 339.976562 155.644531 339.082031 C 155.734375 338.964844 155.8125 338.832031 155.894531 338.695312 C 155.6875 338.457031 155.488281 338.214844 155.230469 338.054688" fill="#bdbcbc"/></g><g><path d="M 154.066406 337.171875 C 153.972656 337.320312 153.855469 337.464844 153.714844 337.585938 C 152.730469 338.398438 151.941406 338.355469 151.460938 338.3125 C 151.066406 338.277344 150.878906 338.242188 150.964844 338.6875 C 151.164062 339.695312 153.40625 338.984375 154.230469 338.265625 C 154.347656 338.164062 154.453125 338.058594 154.566406 337.945312 C 154.421875 337.664062 154.277344 337.382812 154.066406 337.171875" fill="#bdbcbc"/></g><g><path d="M 171.910156 344.839844 C 169.628906 344.332031 165.308594 343.101562 162.476562 342.074219 C 162.394531 342.964844 162.332031 343.867188 161.757812 344.5625 C 165.503906 344.265625 168.164062 346.390625 167.164062 349.128906 C 166.605469 350.660156 162.640625 351.332031 158.476562 351.371094 C 157.5 351.382812 157.394531 353.09375 156.433594 353.234375 C 156.914062 353.34375 157.378906 353.429688 157.808594 353.480469 C 161.726562 353.953125 169.324219 353.035156 170.984375 352.441406 C 172.9375 351.742188 174.0625 347.453125 174.0625 347.453125 C 174.0625 347.453125 173.816406 345.265625 171.910156 344.839844" fill="#21508a"/></g><g><path d="M 147.160156 347.777344 C 142.574219 345.882812 135.085938 346.328125 131.707031 343.980469 C 131.800781 344.84375 131.996094 345.539062 131.996094 345.539062 C 131.996094 345.539062 134.710938 348.238281 135.683594 348.445312 C 136.652344 348.65625 143.472656 348.644531 145.269531 349.304688 C 147.070312 349.960938 153.882812 353.003906 157.808594 353.480469 C 161.726562 353.953125 169.324219 353.035156 170.984375 352.441406 C 171.582031 352.230469 174.230469 349.511719 174.0625 347.453125 C 174 346.730469 173.566406 345.523438 172.464844 345.03125 C 171.953125 344.808594 171.972656 345.503906 171.667969 345.628906 C 171.515625 345.691406 170.839844 345.484375 170.144531 345.28125 C 169.40625 345.058594 168.652344 344.839844 168.511719 344.945312 C 167.882812 345.421875 171.011719 347.792969 170.503906 348.625 C 168.90625 351.246094 164.132812 352.15625 161.296875 351.828125 C 157.007812 351.335938 151.746094 349.671875 147.160156 347.777344" fill="#45a0c7"/></g><g><path d="M 134.472656 332.847656 C 134.472656 332.847656 134.640625 332.769531 134.886719 332.65625 L 135.066406 332.746094 C 135.230469 332.796875 135.367188 332.867188 135.515625 332.933594 C 135.550781 333.230469 136.996094 334.609375 137.222656 334.761719 C 137.613281 335.027344 137.984375 335.234375 138.367188 335.414062 C 138.8125 335.855469 139.304688 336.246094 139.964844 336.492188 C 140.8125 336.8125 142.164062 336.632812 143.019531 336.445312 C 144.6875 336.082031 146 335.824219 147.648438 336.160156 C 148.101562 337.316406 148.589844 338.464844 149.171875 339.648438 C 147.4375 339.8125 147.496094 338.402344 144.714844 338.332031 C 143.84375 338.308594 142.925781 338.71875 141.9375 339.132812 C 140.589844 339.695312 139.105469 340.257812 137.410156 339.722656 C 135.96875 339.269531 135.492188 336.660156 134.160156 335.902344 L 134.148438 335.902344 L 134.21875 335.675781 C 134.523438 334.445312 134.472656 332.847656 134.472656 332.847656" fill="#1f4c7f"/></g><g><path d="M 145.855469 335.761719 C 144.222656 336.027344 142.105469 336.867188 140.453125 336.167969 C 138.433594 335.316406 137.328125 332.949219 135.144531 332.535156 C 134.753906 332.710938 134.472656 332.847656 134.472656 332.847656 C 134.472656 332.847656 134.476562 332.914062 134.476562 333.023438 C 134.617188 332.851562 134.867188 332.773438 135.105469 332.953125 C 136.589844 334.089844 138.335938 337.148438 140.347656 337.152344 C 142.175781 337.152344 143.804688 336.230469 145.605469 336.226562 C 147.386719 336.21875 150.582031 338.464844 152.050781 339.355469 C 152.535156 339.648438 152.339844 338.886719 151.640625 338.390625 C 149.945312 336.972656 147.78125 335.441406 145.855469 335.761719" fill="#29242c"/></g><g><path d="M 131.996094 345.539062 C 131.996094 345.539062 131.402344 347.484375 131.199219 347.960938 C 130.992188 348.441406 132.019531 351.167969 133.019531 351.273438 C 135.425781 351.53125 141.511719 352.03125 144.261719 352.277344 C 147.535156 352.570312 152.519531 354.578125 156.128906 354.898438 C 163.992188 355.601562 169.972656 353.753906 170.96875 353.144531 C 173.039062 351.886719 174.609375 348.183594 174.0625 347.453125 C 171.910156 344.839844 172.351562 351.332031 170.132812 352.554688 C 168.992188 353.1875 161.105469 353.296875 156.082031 352.417969 C 152.121094 351.71875 148.355469 348.964844 144.039062 348.738281 C 139.046875 348.480469 131.996094 345.539062 131.996094 345.539062" fill="#1f4c7f"/></g><g><path d="M 161.757812 344.558594 C 161.195312 345.242188 159.585938 346.714844 156.792969 345.371094 C 154.5625 344.304688 144.898438 336.269531 144.898438 336.269531 C 144.898438 336.269531 147.46875 335.742188 149.925781 337.6875 C 151.675781 339.082031 159.335938 344.582031 161.757812 344.558594" fill="#45a0c7"/></g><g><path d="M 162.476562 342.074219 C 162.476562 342.074219 163.347656 343.0625 161.757812 344.5625 C 161.066406 345.214844 159.589844 345.066406 160.136719 344.726562 C 161.445312 343.902344 161.746094 342.742188 161.5625 342.621094 C 159.453125 341.246094 153.617188 337.664062 153.617188 337.664062 C 153.617188 337.664062 153.496094 337.582031 154.164062 337.015625 C 156.027344 338.378906 162.476562 342.074219 162.476562 342.074219" fill="#45a0c7"/></g><g><path d="M 152.832031 335.78125 C 153.496094 336.152344 152.753906 337.410156 152.066406 337.949219 C 151.316406 338.53125 148.695312 338.953125 148.398438 337.996094 C 148.101562 337.042969 149.679688 338.460938 151.546875 337.3125 C 152.976562 336.433594 151.945312 335.28125 152.832031 335.78125" fill="#f4f4f4"/></g><g><path d="M 154.617188 336.976562 C 155.34375 337.1875 154.839844 338.414062 154.339844 339.023438 C 153.738281 339.753906 151.285156 340.769531 150.78125 339.910156 C 150.269531 339.046875 152.117188 340.058594 153.6875 338.519531 C 154.640625 337.589844 153.640625 336.691406 154.617188 336.976562" fill="#f4f4f4"/></g><g><path d="M 156.3125 338.191406 C 156.921875 338.382812 156.550781 339.390625 156.140625 340.058594 C 155.648438 340.871094 153.5625 342.085938 152.9375 341.296875 C 152.316406 340.515625 154.316406 341.601562 155.425781 339.707031 C 155.949219 338.804688 155.339844 337.882812 156.3125 338.191406" fill="#f4f4f4"/></g><g><path d="M 158.257812 339.207031 C 158.878906 339.359375 158.539062 340.707031 158.046875 341.566406 C 157.503906 342.519531 155.617188 343.929688 155.101562 343.042969 C 154.597656 342.179688 156.132812 343.085938 157.332031 341.09375 C 157.867188 340.199219 157.269531 338.976562 158.257812 339.207031" fill="#f4f4f4"/></g><g><path d="M 160.050781 340.0625 C 160.6875 340.132812 160.515625 341.511719 160.132812 342.429688 C 159.710938 343.441406 158.015625 345.070312 157.390625 344.261719 C 156.777344 343.46875 158.421875 344.171875 159.363281 342.046875 C 159.785156 341.097656 159.042969 339.953125 160.050781 340.0625" fill="#f4f4f4"/></g><g><path d="M 155.207031 239.917969 L 129.253906 241.410156 C 123.265625 225.027344 116.871094 207 113.644531 190.699219 C 108.949219 167.011719 145.109375 164.296875 145.207031 165.203125 C 146.117188 173.6875 153.84375 195.746094 153.6875 206.800781 C 153.675781 207.855469 157.234375 219.359375 155.207031 239.917969" fill="#183c64"/></g><g><path d="M 276.414062 207.222656 L 263.65625 204.367188 L 246.84375 279.476562 L 259.605469 282.332031 L 276.414062 207.222656" fill="#bdbcbc"/></g><g><path d="M 266.898438 270.265625 L 245.390625 265.449219 L 231.757812 326.324219 L 253.269531 331.140625 L 266.898438 270.265625" fill="#a5a3a4"/></g><g><path d="M 266.898438 270.265625 L 231.757812 326.324219 L 253.269531 331.140625 Z M 266.898438 270.265625" fill="#848182"/></g><g><path d="M 289.910156 392.882812 L 257.390625 392.882812 L 257.390625 374.457031 L 273.652344 364.878906 L 289.910156 392.882812" fill="#bdbcbc"/></g><g><path d="M 251.609375 390.894531 C 251.609375 392.894531 253.230469 394.511719 255.222656 394.511719 L 290.996094 394.511719 C 292.992188 394.511719 294.609375 392.894531 294.609375 390.894531 C 294.609375 388.902344 292.992188 387.28125 290.996094 387.28125 L 255.222656 387.28125 C 253.230469 387.28125 251.609375 388.902344 251.609375 390.894531" fill="#bdbcbc"/></g><g><path d="M 294.609375 390.894531 L 251.609375 390.894531 C 251.609375 388.902344 253.230469 387.28125 255.222656 387.28125 L 290.996094 387.28125 C 292.992188 387.28125 294.609375 388.902344 294.609375 390.894531" fill="#908e8e"/></g><g><path d="M 135.886719 213.925781 L 123.035156 216.34375 L 137.269531 291.984375 L 150.121094 289.566406 L 135.886719 213.925781" fill="#bdbcbc"/></g><g><path d="M 150.871094 213.679688 L 117.335938 222.238281 L 125.84375 231.261719 L 138.691406 228.839844 L 150.871094 213.679688" fill="#827f80"/></g><g><path d="M 152.054688 275.59375 L 130.390625 279.675781 L 132.863281 292.8125 L 154.527344 288.734375 L 152.054688 275.59375" fill="#a5a3a4"/></g><g><path d="M 152.054688 275.59375 L 132.863281 292.8125 L 154.527344 288.734375 Z M 152.054688 275.59375" fill="#848182"/></g><g><path d="M 121.558594 392.882812 L 154.078125 392.882812 L 154.078125 374.457031 L 134.203125 374.457031 L 121.558594 392.882812" fill="#bdbcbc"/></g><g><path d="M 288.746094 360.90625 C 288.746094 373.914062 276.820312 382.585938 256.585938 382.585938 C 241.40625 382.585938 169.015625 383.667969 154.4375 383.667969 C 127.300781 383.667969 105.296875 361.667969 105.296875 334.527344 C 105.296875 307.386719 127.300781 285.382812 154.4375 285.382812 C 185.9375 285.382812 288.746094 326.574219 288.746094 360.90625" fill="#211d22"/></g><g><path d="M 272.667969 359.78125 C 272.667969 371.742188 261.699219 379.71875 243.089844 379.71875 C 229.132812 379.71875 169.351562 379.71875 155.949219 379.71875 C 130.988281 379.71875 110.757812 359.484375 110.757812 334.527344 C 110.757812 309.566406 130.988281 289.332031 155.949219 289.332031 C 184.914062 289.332031 272.667969 328.210938 272.667969 359.78125" fill="#29242c"/></g><g><path d="M 191.300781 334.527344 C 191.300781 355.082031 174.636719 371.746094 154.078125 371.746094 C 133.519531 371.746094 116.855469 355.082031 116.855469 334.527344 C 116.855469 313.96875 133.519531 297.308594 154.078125 297.308594 C 174.636719 297.308594 191.300781 313.96875 191.300781 334.527344" fill="#bdbcbc"/></g><g><path d="M 184.433594 334.527344 C 184.433594 351.289062 170.84375 364.878906 154.078125 364.878906 C 137.3125 364.878906 123.726562 351.289062 123.726562 334.527344 C 123.726562 317.761719 137.3125 304.171875 154.078125 304.171875 C 170.84375 304.171875 184.433594 317.761719 184.433594 334.527344" fill="#a7a5a6"/></g><g><path d="M 159.859375 334.527344 C 159.859375 337.71875 157.269531 340.308594 154.078125 340.308594 C 150.886719 340.308594 148.296875 337.71875 148.296875 334.527344 C 148.296875 331.332031 150.886719 328.746094 154.078125 328.746094 C 157.269531 328.746094 159.859375 331.332031 159.859375 334.527344" fill="#4f4c4c"/></g><g><path d="M 186.921875 331.238281 C 188.519531 331.21875 189.828125 332.5 189.851562 334.09375 C 189.867188 335.691406 188.589844 337 186.988281 337.019531 L 154.113281 337.417969 C 152.519531 337.433594 151.207031 336.15625 151.1875 334.558594 C 151.167969 332.964844 152.445312 331.652344 154.042969 331.636719 L 186.921875 331.238281" fill="#d3d2d2"/></g><g><path d="M 202.621094 335.429688 C 202.4375 337.519531 200.96875 339.09375 199.324219 338.953125 L 175.019531 336.855469 C 173.382812 336.714844 172.199219 334.90625 172.382812 332.820312 C 172.5625 330.730469 174.035156 329.152344 175.675781 329.292969 L 199.980469 331.394531 C 201.617188 331.535156 202.800781 333.34375 202.621094 335.429688" fill="#171316"/></g><g><path d="M 159.859375 390.894531 C 159.859375 392.894531 158.242188 394.511719 156.246094 394.511719 L 120.472656 394.511719 C 118.476562 394.511719 116.855469 392.894531 116.855469 390.894531 C 116.855469 388.902344 118.476562 387.28125 120.472656 387.28125 L 156.246094 387.28125 C 158.242188 387.28125 159.859375 388.902344 159.859375 390.894531" fill="#bdbcbc"/></g><g><path d="M 159.859375 390.894531 L 116.855469 390.894531 C 116.855469 388.902344 118.476562 387.28125 120.472656 387.28125 L 156.246094 387.28125 C 158.242188 387.28125 159.859375 388.902344 159.859375 390.894531" fill="#908e8e"/></g><g><path d="M 258.902344 195.988281 L 280.8125 198.4375 L 276.414062 207.222656 L 261.632812 210.664062 L 258.902344 195.988281" fill="#827f80"/></g><g><path d="M 259.621094 189.527344 L 285.539062 156.058594 L 280.8125 198.4375 L 258.902344 195.988281 L 259.621094 189.527344" fill="#a5a3a4"/></g><g><path d="M 252.96875 194.902344 C 254.539062 196.128906 257.117188 195.449219 258.726562 193.382812 L 287.523438 156.375 C 289.132812 154.3125 289.15625 151.644531 287.582031 150.414062 C 286.007812 149.191406 283.429688 149.871094 281.820312 151.9375 L 253.019531 188.945312 C 251.414062 191.011719 251.390625 193.675781 252.96875 194.902344" fill="#bdbcbc"/></g><g><path d="M 281.835938 151.914062 C 281.847656 151.902344 281.859375 151.886719 281.867188 151.875 C 281.859375 151.886719 281.847656 151.902344 281.835938 151.914062 M 287.582031 150.414062 C 287.574219 150.410156 287.566406 150.40625 287.5625 150.398438 C 287.566406 150.40625 287.574219 150.410156 287.582031 150.414062 M 287.554688 150.394531 C 287.027344 149.996094 286.394531 149.808594 285.726562 149.808594 C 286.394531 149.808594 287.027344 149.996094 287.554688 150.394531 M 285.71875 149.808594 C 285.722656 149.808594 285.722656 149.808594 285.722656 149.808594 C 285.722656 149.808594 285.722656 149.808594 285.71875 149.808594" fill="#bdbcbd"/></g><g><path d="M 252.96875 194.902344 C 252.1875 194.296875 251.800781 193.339844 251.800781 192.277344 C 251.800781 191.1875 252.207031 189.988281 253.019531 188.945312 L 281.820312 151.9375 C 281.824219 151.929688 281.832031 151.921875 281.835938 151.914062 C 281.847656 151.902344 281.859375 151.886719 281.867188 151.875 C 282.929688 150.546875 284.398438 149.808594 285.71875 149.808594 C 285.722656 149.808594 285.722656 149.808594 285.722656 149.808594 C 285.726562 149.808594 285.726562 149.808594 285.726562 149.808594 C 286.394531 149.808594 287.027344 149.996094 287.554688 150.394531 C 287.554688 150.394531 287.558594 150.398438 287.5625 150.398438 C 287.566406 150.40625 287.574219 150.410156 287.582031 150.414062 L 252.96875 194.902344" fill="#908e8e"/></g><g><path d="M 236.675781 200.402344 C 236.449219 202.421875 237.902344 204.242188 239.925781 204.46875 L 266.90625 207.476562 C 268.925781 207.703125 270.742188 206.25 270.972656 204.230469 C 271.195312 202.210938 269.742188 200.390625 267.722656 200.167969 L 240.738281 197.15625 C 238.71875 196.929688 236.898438 198.382812 236.675781 200.402344" fill="#bdbcbc"/></g><g><path d="M 227.722656 199.402344 C 227.445312 201.882812 228.195312 204 229.398438 204.136719 L 245.464844 205.929688 C 246.664062 206.0625 247.863281 204.164062 248.140625 201.683594 C 248.421875 199.203125 247.664062 197.085938 246.46875 196.949219 L 230.398438 195.15625 C 229.199219 195.023438 228 196.921875 227.722656 199.402344" fill="#29242c"/></g><g><path d="M 166.027344 213.277344 C 165.921875 219.902344 150.527344 218.488281 135.988281 219.210938 C 127.0625 219.652344 118.0625 225.777344 115.8125 225.742188 C 109.90625 225.644531 104.410156 218.179688 104.507812 212.273438 C 104.605469 206.359375 108.140625 202.367188 113.433594 205.003906 C 125.703125 211.109375 166.199219 202.578125 166.027344 213.277344" fill="#29242c"/></g><g><path d="M 274.042969 191.769531 C 275.449219 192.359375 276.9375 192.609375 278.394531 192.605469 C 280.925781 192.597656 283.386719 191.90625 285.839844 190.859375 C 290.121094 189.007812 294.464844 186.003906 298.730469 182.539062 C 305.109375 177.347656 311.253906 171.097656 315.847656 166.121094 C 320.4375 161.144531 323.457031 157.449219 323.488281 157.410156 C 324.675781 155.957031 324.554688 153.835938 323.207031 152.527344 L 316.785156 146.296875 C 315.351562 144.910156 313.066406 144.941406 311.675781 146.375 C 310.285156 147.808594 310.320312 150.09375 311.753906 151.484375 L 318.175781 157.714844 L 320.691406 155.121094 L 317.894531 152.835938 L 317.878906 152.855469 C 317.511719 153.304688 310.597656 161.691406 302.113281 169.851562 C 297.875 173.929688 293.234375 177.949219 288.929688 180.855469 C 286.785156 182.3125 284.722656 183.484375 282.898438 184.253906 C 281.074219 185.035156 279.503906 185.386719 278.394531 185.378906 C 277.738281 185.378906 277.246094 185.273438 276.839844 185.105469 C 275 184.332031 272.882812 185.199219 272.109375 187.039062 C 271.335938 188.878906 272.203125 190.996094 274.042969 191.769531" fill="#171316"/></g><g><path d="M 130.660156 153.304688 C 140.339844 137.011719 143.214844 124.878906 151.1875 110.75 C 162.402344 90.871094 175.3125 85.679688 181.113281 84.902344 C 186.050781 84.238281 193.613281 85.578125 195.722656 92.226562 C 192.449219 100.601562 196.304688 106.746094 193.078125 117.882812 C 191.617188 122.933594 182.082031 138.636719 182.082031 138.636719 C 182.082031 138.636719 166.046875 172.425781 157.234375 187.628906 C 152.671875 195.503906 149.550781 196.261719 143.695312 202.316406 C 130.367188 216.113281 109.605469 196.902344 116.855469 180.625 C 125.101562 162.148438 122.480469 167.066406 130.660156 153.304688" fill="#f9aa78"/></g><g><path d="M 149.128906 175.324219 C 174.519531 187.15625 190.648438 198.949219 209.777344 210.695312 C 217.761719 215.597656 214.8125 239.605469 207.039062 235.730469 C 184.761719 224.609375 149.988281 214.578125 126.019531 203.320312 C 118.15625 199.632812 115.9375 184.320312 125.699219 177.105469 C 133.566406 171.292969 144.046875 172.949219 149.128906 175.324219" fill="#f9aa78"/></g><g><path d="M 173.3125 305.671875 C 174.546875 307.238281 175.546875 310.859375 177.628906 311.390625 C 178.578125 311.632812 179.535156 311.621094 180.488281 311.609375 C 181.433594 311.59375 182.378906 311.582031 183.308594 311.816406 C 185.144531 312.277344 186.101562 313.15625 187.378906 314.460938 C 188.761719 315.875 190.695312 315.894531 192.046875 315 C 190.339844 313.082031 188.972656 311.46875 188.578125 310.988281 C 188.058594 310.363281 186.914062 310.636719 185.578125 310.90625 C 184.3125 311.164062 182.875 311.425781 181.628906 310.917969 C 179.0625 309.875 176.6875 305.390625 175.945312 305.128906 C 175.199219 304.867188 172.683594 305.398438 172.683594 305.398438 C 172.683594 305.398438 172.671875 305.46875 172.644531 305.582031 C 172.839844 305.441406 173.113281 305.425781 173.3125 305.671875" fill="#171417"/></g><g><path d="M 187.566406 71.011719 C 187.667969 77.179688 184.289062 83.132812 181.113281 84.902344 C 176.871094 87.269531 194.015625 97.476562 195.011719 94.421875 C 195.722656 92.226562 198.550781 89.097656 200.167969 89.164062 C 204.046875 89.332031 206.1875 94.644531 209.96875 93.734375 C 213.035156 92.996094 221.761719 82.457031 221.761719 82.457031 C 221.761719 82.457031 226.179688 82.726562 226.289062 81.40625 C 226.703125 76.515625 227.5 70.585938 231.78125 68.867188 C 233.4375 68.207031 237.269531 61.203125 237.742188 59.855469 C 240.730469 51.351562 235.628906 42.851562 224.710938 39.441406 C 211.851562 35.433594 187.242188 50.734375 187.566406 71.011719" fill="#f9aa78"/></g><g><path d="M 214.753906 63.335938 C 223.0625 54.453125 229.300781 65.097656 237.742188 59.855469 C 240.871094 56.648438 242.042969 54.15625 237.828125 48.816406 C 231.421875 40.699219 221.1875 26.964844 205.378906 31.636719 C 191.433594 35.757812 186.382812 51.554688 186.398438 61.808594 C 186.402344 67.507812 186.984375 75.769531 186.984375 75.769531 C 186.984375 75.769531 197.929688 75.351562 201.09375 70.375 C 204.257812 65.394531 209.921875 65.871094 209.644531 67.925781 C 209.046875 72.425781 203.78125 77.292969 201.816406 81.105469 C 199.851562 84.914062 205.34375 95.113281 209.96875 93.734375 C 210.898438 93.351562 212.027344 92.542969 213.1875 91.546875 C 214.074219 90.792969 202.578125 91.246094 212.511719 82.304688 C 213.640625 81.289062 217.902344 86.914062 218.683594 86.035156 C 219.710938 84.890625 220.371094 84.089844 220.371094 84.089844 C 220.371094 84.089844 216.730469 82.78125 214.230469 79.378906 C 211.738281 75.980469 214.449219 63.664062 214.753906 63.335938" fill="#351f17"/></g><g><path d="M 213.070312 214.960938 C 213.070312 214.960938 217.882812 223.984375 212.820312 236.152344 C 205.097656 248.90625 190.488281 286.867188 185.613281 307.199219 C 184.914062 310.105469 193.621094 317.460938 198.433594 322.035156 C 203.246094 326.609375 197.949219 330.269531 196.859375 330.875 C 191.84375 333.695312 168.089844 319.246094 172.734375 307.871094 C 178.878906 292.8125 177.28125 277.417969 186.277344 243.351562 C 189.546875 230.988281 191.566406 221.824219 193.828125 216.398438 C 200.425781 200.542969 213.070312 214.960938 213.070312 214.960938" fill="#f9aa78"/></g><g><path d="M 175.585938 299.453125 L 186.738281 302.890625 C 186.316406 304.394531 185.941406 305.835938 185.613281 307.199219 C 184.914062 310.105469 193.621094 317.460938 198.433594 322.035156 C 203.246094 326.609375 197.949219 330.269531 196.859375 330.875 C 191.84375 333.695312 168.089844 319.246094 172.734375 307.871094 C 173.878906 305.0625 174.796875 302.304688 175.585938 299.453125" fill="#fff"/></g><g><path d="M 202.042969 64.09375 C 200.046875 67.453125 200.378906 70.824219 202.632812 72.160156 C 205.992188 74.160156 208.621094 70.816406 210.085938 67.1875 C 213.558594 58.578125 204.039062 60.730469 202.042969 64.09375" fill="#f9aa78"/></g><g><path d="M 167.546875 314.054688 C 169.121094 311.425781 171.316406 308.933594 171.683594 308.257812 C 172.003906 307.652344 172.257812 306.933594 172.429688 306.363281 C 172.566406 306.453125 172.671875 306.566406 172.839844 306.628906 C 174.816406 307.386719 175.878906 309.613281 177.65625 310.808594 C 179.132812 311.792969 181.089844 312.050781 182.75 312.558594 C 184.375 313.054688 185.636719 313.28125 186.828125 313.175781 C 186.644531 311.859375 188.753906 311.199219 189.664062 312.269531 C 189.726562 312.234375 190.164062 312.792969 190.605469 313.347656 C 191.046875 313.90625 191.484375 314.464844 191.539062 314.429688 C 194.210938 317.457031 197.96875 321.523438 200.078125 322.96875 C 202.738281 324.777344 205.996094 326.503906 208.226562 327.636719 C 210.082031 328.574219 209.757812 330.898438 209.757812 330.898438 C 209.757812 330.898438 207.472656 335.039062 205.269531 335.246094 C 203.398438 335.425781 195.304688 334.375 191.375 332.851562 C 187.445312 331.332031 181.203125 326.394531 179.519531 325.242188 C 177.832031 324.089844 170.78125 322.308594 169.835938 321.835938 C 168.882812 321.363281 166.792969 317.863281 166.792969 317.863281 C 166.792969 317.863281 166.734375 315.414062 167.546875 314.054688" fill="#65bed9"/></g><g><path d="M 197.6875 321.394531 C 197.640625 321.578125 197.566406 321.761719 197.449219 321.929688 C 196.085938 323.992188 194.488281 322.953125 194.984375 323.898438 C 195.5 324.863281 197.570312 323.453125 198.195312 322.464844 C 198.277344 322.332031 198.359375 322.183594 198.433594 322.035156 C 198.199219 321.796875 197.972656 321.546875 197.6875 321.394531" fill="#bdbcbc"/></g><g><path d="M 196.105469 319.957031 C 195.996094 320.117188 195.878906 320.269531 195.71875 320.394531 C 194.664062 321.238281 193.828125 321.183594 193.3125 321.128906 C 192.886719 321.085938 192.683594 321.039062 192.769531 321.519531 C 192.96875 322.597656 195.363281 321.882812 196.265625 321.128906 C 196.382812 321.023438 196.503906 320.914062 196.617188 320.792969 C 196.472656 320.492188 196.320312 320.1875 196.105469 319.957031" fill="#bdbcbc"/></g><g><path d="M 194.597656 318.191406 C 194.488281 318.347656 194.367188 318.496094 194.210938 318.621094 C 193.15625 319.464844 192.320312 319.410156 191.808594 319.359375 C 191.378906 319.3125 191.175781 319.269531 191.265625 319.746094 C 191.453125 320.828125 193.855469 320.113281 194.753906 319.359375 C 194.871094 319.257812 194.996094 319.144531 195.109375 319.019531 C 194.964844 318.722656 194.816406 318.414062 194.597656 318.191406" fill="#bdbcbc"/></g><g><path d="M 192.769531 316.234375 C 192.664062 316.398438 192.539062 316.546875 192.386719 316.675781 C 191.328125 317.519531 190.492188 317.464844 189.980469 317.410156 C 189.554688 317.367188 189.351562 317.324219 189.4375 317.800781 C 189.628906 318.878906 192.03125 318.160156 192.929688 317.410156 C 193.050781 317.308594 193.171875 317.191406 193.285156 317.070312 C 193.140625 316.773438 192.992188 316.46875 192.769531 316.234375" fill="#bdbcbc"/></g><g><path d="M 191.800781 315.019531 C 191.664062 315.148438 191.503906 315.265625 191.324219 315.351562 C 190.203125 315.882812 189.4375 315.71875 188.941406 315.558594 C 188.445312 315.394531 188.226562 315.234375 188.195312 315.765625 C 188.136719 316.863281 190.640625 316.71875 191.683594 316.191406 C 191.824219 316.117188 191.96875 316.035156 192.109375 315.949219 C 192.035156 315.621094 191.964844 315.292969 191.800781 315.019531" fill="#bdbcbc"/></g><g><path d="M 208.226562 327.636719 C 205.996094 326.511719 201.855469 324.101562 199.199219 322.292969 C 198.882812 323.195312 198.578125 324.113281 197.808594 324.675781 C 201.753906 325.359375 203.941406 328.25 202.191406 330.816406 C 201.210938 332.253906 196.9375 331.902344 192.621094 330.851562 C 191.609375 330.605469 191.054688 332.347656 190.019531 332.242188 C 190.488281 332.480469 190.945312 332.691406 191.375 332.855469 C 195.304688 334.375 203.398438 335.425781 205.269531 335.246094 C 207.472656 335.039062 209.757812 330.898438 209.757812 330.898438 C 209.757812 330.898438 210.082031 328.574219 208.226562 327.636719" fill="#21508a"/></g><g><path d="M 181.871094 324.164062 C 177.632812 321 169.773438 319.492188 166.902344 316.175781 C 166.769531 317.089844 166.792969 317.863281 166.792969 317.863281 C 166.792969 317.863281 168.882812 321.363281 169.835938 321.835938 C 170.78125 322.308594 177.832031 324.089844 179.519531 325.242188 C 181.203125 326.394531 187.445312 331.332031 191.375 332.855469 C 195.304688 334.375 203.398438 335.425781 205.269531 335.246094 C 205.9375 335.183594 209.394531 333.070312 209.757812 330.898438 C 209.882812 330.136719 209.757812 328.777344 208.746094 327.976562 C 208.277344 327.613281 208.109375 328.335938 207.765625 328.386719 C 207.410156 328.441406 205.019531 326.707031 204.679688 326.851562 C 203.90625 327.175781 206.515625 330.449219 205.773438 331.175781 C 203.4375 333.464844 198.257812 333.152344 195.414062 332.066406 C 191.113281 330.429688 186.113281 327.328125 181.871094 324.164062" fill="#45a0c7"/></g><g><path d="M 172.683594 305.398438 C 172.683594 305.398438 172.878906 305.359375 173.164062 305.308594 L 173.328125 305.449219 C 173.480469 305.546875 173.605469 305.652344 173.742188 305.757812 C 173.699219 306.078125 174.832031 307.882812 175.027344 308.101562 C 175.355469 308.476562 175.6875 308.789062 176.035156 309.074219 C 176.378906 309.644531 176.785156 310.179688 177.402344 310.609375 C 178.195312 311.160156 179.644531 311.332031 180.574219 311.363281 C 182.394531 311.425781 183.816406 311.503906 185.433594 312.285156 C 185.597656 313.597656 185.800781 314.914062 186.089844 316.289062 C 184.253906 316.003906 184.683594 314.558594 181.828125 313.757812 C 180.972656 313.515625 179.96875 313.675781 178.890625 313.835938 C 177.3125 314.070312 175.578125 314.304688 173.914062 313.273438 C 172.542969 312.425781 172.738281 309.605469 171.5625 308.472656 L 171.550781 308.46875 L 171.683594 308.257812 C 172.316406 307.0625 172.683594 305.398438 172.683594 305.398438" fill="#1f4c7f"/></g><g><path d="M 183.6875 311.402344 C 181.929688 311.25 179.519531 311.558594 177.992188 310.402344 C 176.128906 308.988281 175.609375 306.253906 173.460938 305.253906 C 173.011719 305.332031 172.683594 305.398438 172.683594 305.398438 C 172.683594 305.398438 172.671875 305.46875 172.644531 305.582031 C 172.839844 305.441406 173.113281 305.425781 173.3125 305.671875 C 174.546875 307.238281 175.546875 310.859375 177.628906 311.390625 C 178.578125 311.632812 179.535156 311.621094 180.488281 311.609375 C 181.433594 311.59375 182.378906 311.582031 183.308594 311.816406 C 185.144531 312.277344 187.859375 315.4375 189.140625 316.742188 C 189.566406 317.175781 189.5625 316.335938 188.972656 315.636719 C 187.59375 313.726562 185.761719 311.574219 183.6875 311.402344" fill="#29242c"/></g><g><path d="M 166.792969 317.863281 C 166.792969 317.863281 165.671875 319.71875 165.328125 320.15625 C 164.988281 320.597656 165.339844 323.6875 166.34375 324.058594 C 168.757812 324.960938 174.921875 327.074219 177.695312 328.054688 C 181.003906 329.214844 185.621094 332.597656 189.269531 333.878906 C 197.214844 336.675781 203.875 336.332031 205.066406 335.96875 C 207.535156 335.210938 210.136719 331.800781 209.757812 330.898438 C 208.226562 327.636719 206.972656 334.457031 204.355469 335.140625 C 203.011719 335.492188 194.832031 333.535156 189.871094 331.304688 C 185.96875 329.542969 182.796875 325.703125 178.394531 324.335938 C 173.304688 322.757812 166.792969 317.863281 166.792969 317.863281" fill="#1f4c7f"/></g><g><path d="M 197.808594 324.675781 C 197.039062 325.234375 194.988281 326.332031 192.457031 324.210938 C 190.4375 322.519531 182.5625 311.675781 182.5625 311.675781 C 182.5625 311.675781 185.355469 311.808594 187.378906 314.460938 C 188.828125 316.363281 195.296875 324.0625 197.808594 324.675781" fill="#45a0c7"/></g><g><path d="M 199.199219 322.292969 C 199.199219 322.292969 199.84375 323.542969 197.808594 324.675781 C 196.914062 325.171875 195.429688 324.628906 196.085938 324.417969 C 197.652344 323.917969 198.269531 322.796875 198.109375 322.621094 C 196.296875 320.644531 191.210938 315.410156 191.210938 315.410156 C 191.210938 315.410156 191.105469 315.289062 191.9375 314.882812 C 193.503906 316.78125 199.199219 322.292969 199.199219 322.292969" fill="#45a0c7"/></g><g><path d="M 185.875 314.984375 C 185.816406 314.984375 185.753906 314.972656 185.695312 314.953125 C 185.40625 314.855469 185.257812 314.535156 185.355469 314.253906 C 185.441406 314.027344 185.652344 313.886719 185.878906 313.886719 C 185.9375 313.886719 186 313.898438 186.0625 313.917969 C 186.34375 314.019531 186.492188 314.332031 186.394531 314.617188 C 186.316406 314.84375 186.101562 314.984375 185.875 314.984375" fill="#38607a"/></g><g><path d="M 188.003906 317.53125 C 187.941406 317.53125 187.882812 317.519531 187.820312 317.5 C 187.535156 317.398438 187.386719 317.089844 187.484375 316.804688 C 187.566406 316.574219 187.777344 316.433594 188.003906 316.433594 C 188.0625 316.433594 188.125 316.445312 188.183594 316.464844 C 188.472656 316.566406 188.621094 316.878906 188.519531 317.167969 C 188.441406 317.390625 188.230469 317.53125 188.003906 317.53125" fill="#38607a"/></g><g><path d="M 189.839844 319.550781 C 189.777344 319.550781 189.714844 319.539062 189.65625 319.519531 C 189.371094 319.421875 189.222656 319.105469 189.320312 318.816406 C 189.398438 318.59375 189.613281 318.453125 189.839844 318.453125 C 189.898438 318.453125 189.960938 318.460938 190.019531 318.484375 C 190.308594 318.582031 190.453125 318.898438 190.355469 319.183594 C 190.277344 319.40625 190.066406 319.550781 189.839844 319.550781" fill="#38607a"/></g><g><path d="M 191.660156 321.777344 C 191.601562 321.777344 191.539062 321.765625 191.476562 321.746094 C 191.195312 321.644531 191.042969 321.332031 191.144531 321.046875 C 191.222656 320.820312 191.433594 320.679688 191.660156 320.679688 C 191.71875 320.679688 191.78125 320.6875 191.84375 320.710938 C 192.128906 320.8125 192.277344 321.125 192.179688 321.410156 C 192.097656 321.636719 191.886719 321.777344 191.660156 321.777344" fill="#38607a"/></g><g><path d="M 193.570312 323.738281 C 193.511719 323.738281 193.449219 323.730469 193.390625 323.707031 C 193.105469 323.605469 192.953125 323.292969 193.054688 323.011719 C 193.136719 322.78125 193.351562 322.640625 193.574219 322.640625 C 193.632812 322.640625 193.695312 322.652344 193.753906 322.671875 C 194.039062 322.773438 194.191406 323.085938 194.09375 323.375 C 194.011719 323.597656 193.800781 323.738281 193.570312 323.738281" fill="#38607a"/></g><g><path d="M 195.199219 324.621094 C 195.171875 324.621094 195.140625 324.613281 195.109375 324.605469 C 194.96875 324.554688 194.894531 324.394531 194.941406 324.253906 C 194.984375 324.140625 195.089844 324.070312 195.203125 324.070312 C 195.234375 324.070312 195.265625 324.074219 195.296875 324.085938 C 195.4375 324.136719 195.511719 324.292969 195.464844 324.4375 C 195.421875 324.546875 195.3125 324.621094 195.199219 324.621094" fill="#38607a"/></g><g><path d="M 190.886719 313.253906 C 191.476562 313.816406 190.382812 314.917969 189.527344 315.296875 C 188.597656 315.703125 185.777344 315.445312 185.726562 314.382812 C 185.664062 313.316406 186.921875 315.199219 189.152344 314.5 C 190.863281 313.96875 190.105469 312.507812 190.886719 313.253906" fill="#f4f4f4"/></g><g><path d="M 192.421875 314.960938 C 193.117188 315.371094 192.269531 316.503906 191.589844 317.003906 C 190.777344 317.601562 187.980469 318.007812 187.683594 316.984375 C 187.382812 315.957031 189.027344 317.488281 191.050781 316.3125 C 192.277344 315.601562 191.484375 314.410156 192.421875 314.960938" fill="#f4f4f4"/></g><g><path d="M 193.851562 316.660156 C 194.433594 317.019531 193.78125 317.964844 193.183594 318.546875 C 192.460938 319.257812 189.984375 319.960938 189.546875 318.984375 C 189.109375 318.011719 190.894531 319.660156 192.535156 317.996094 C 193.316406 317.199219 192.929688 316.085938 193.851562 316.660156" fill="#f4f4f4"/></g><g><path d="M 195.59375 318.222656 C 196.199219 318.542969 195.488281 319.84375 194.753906 320.605469 C 193.941406 321.449219 191.628906 322.410156 191.320312 321.359375 C 191.027344 320.332031 192.378906 321.671875 194.144531 319.929688 C 194.933594 319.148438 194.636719 317.722656 195.59375 318.222656" fill="#f4f4f4"/></g><g><path d="M 197.222656 319.578125 C 197.863281 319.820312 197.320312 321.199219 196.683594 322.046875 C 195.980469 322.984375 193.804688 324.222656 193.367188 323.21875 C 192.945312 322.238281 194.453125 323.398438 195.984375 321.449219 C 196.679688 320.578125 196.210938 319.199219 197.222656 319.578125" fill="#f4f4f4"/></g><g><path d="M 192.679688 199.878906 L 178.816406 223.890625 C 160.710938 219.640625 140.902344 214.785156 124.480469 208.117188 C 100.621094 198.433594 119.367188 164.613281 120.230469 165.0625 C 128.328125 169.214844 152.515625 175.242188 162.273438 181.847656 C 163.207031 182.480469 175.542969 186.042969 192.679688 199.878906" fill="#1f4c7f"/></g><g><path d="M 162.273438 181.847656 C 162.273438 181.847656 156.402344 189.753906 140.507812 180.308594 C 124.609375 170.859375 120.230469 165.0625 120.230469 165.0625 C 121.679688 162.84375 128.832031 156.378906 130.660156 153.304688 C 140.339844 137.011719 143.214844 124.878906 151.1875 110.75 C 155.792969 102.589844 160.683594 96.902344 165.246094 92.984375 C 171.808594 87.351562 181.066406 86.90625 186.550781 90.164062 C 192.105469 93.464844 190.839844 111.199219 190.839844 111.199219 C 190.839844 111.199219 192.167969 114.300781 193.984375 116.625 C 192.523438 121.671875 182.082031 138.636719 182.082031 138.636719 C 182.082031 138.636719 171.273438 165.222656 162.273438 181.847656" fill="#c13331"/></g><g><path d="M 164.6875 109.980469 C 162.148438 118.019531 164.964844 125.480469 170.4375 128.734375 C 175.910156 131.984375 184.300781 131.558594 187.511719 120.042969 C 190.546875 109.15625 189.453125 96.074219 182.800781 93.269531 C 176.144531 90.464844 168.328125 98.449219 164.6875 109.980469" fill="#e99a6f"/></g><g><path d="M 173.109375 100.621094 C 167.808594 101.59375 165.25 111.789062 167.398438 121.589844 C 168.898438 128.425781 181.160156 156.761719 185.246094 162.457031 C 187.628906 165.769531 198.59375 155.675781 198.59375 155.675781 C 198.59375 155.675781 192.082031 133.472656 189.542969 122.257812 C 185.949219 105.707031 178.796875 99.574219 173.109375 100.621094" fill="#f9aa78"/></g><g><path d="M 186.144531 163.929688 C 198.308594 176.742188 215.253906 183.128906 224.082031 190.523438 C 228.902344 194.5625 233.597656 186.710938 231.277344 183.949219 C 225.285156 179.371094 212.160156 165.710938 206.972656 160.4375 C 199.570312 152.910156 193.734375 150.773438 193.734375 150.773438 C 193.734375 150.773438 179.144531 156.550781 186.144531 163.929688" fill="#f9aa78"/></g><g><path d="M 231.277344 183.949219 C 231.277344 183.949219 236.492188 187.027344 239.097656 190.09375 C 241.976562 193.484375 243.1875 194.554688 242.746094 197.011719 C 242.390625 198.957031 239.660156 201.257812 238 203.433594 C 237.433594 204.179688 235.421875 203.410156 232.5625 201.894531 C 224.050781 197.382812 226.707031 192.5625 224.082031 190.523438 L 231.277344 183.949219" fill="#f9aa78"/></g></g></svg>