<?xml version="1.0" encoding="UTF-8"?><svg xmlns="http://www.w3.org/2000/svg" xmlns:xlink="http://www.w3.org/1999/xlink" height="509.8" preserveAspectRatio="xMidYMid meet" version="1.0" viewBox="0.0 -11.0 408.2 509.8" width="408.2" zoomAndPan="magnify"><defs><clipPath id="a"><path d="M 0 69 L 408.238281 69 L 408.238281 498.878906 L 0 498.878906 Z M 0 69"/></clipPath></defs><g><g clip-path="url(#a)" id="change1_1"><path d="M 156.21875 448.652344 L 132.417969 382.421875 L 128.414062 379.023438 C 130.832031 380.878906 132.417969 382.421875 132.417969 382.421875 C 129.355469 374.191406 121.671875 368.585938 112.898438 368.1875 L 27.414062 364.277344 C 19.816406 363.929688 12.269531 366.371094 6.59375 371.433594 C -4.367188 381.203125 1.644531 390.988281 1.644531 390.988281 L 32.378906 400.078125 C 32.601562 400.960938 32.855469 401.847656 33.171875 402.726562 L 59.753906 476.550781 L 129.683594 482.316406 C 143.460938 483.453125 156.421875 489.304688 166.390625 498.878906 L 164.898438 485.835938 C 163.449219 473.148438 160.535156 460.671875 156.21875 448.652344 Z M 408.113281 485.710938 L 200.71875 485.710938 C 200.71875 485.710938 201.171875 468.46875 201.90625 443.578125 L 193.496094 418.726562 L 202.789062 414.769531 C 203.410156 395.152344 204.132812 373.597656 204.90625 353.035156 C 205.761719 330.300781 209.878906 304.425781 215.078125 280.15625 L 202.539062 299.785156 L 184.136719 238.320312 L 184.507812 259.347656 L 103.339844 259.347656 L 86 69.71875 L 166.058594 80.050781 L 178.117188 206.667969 L 197.417969 184.085938 L 223.421875 245.570312 C 230.433594 219.386719 237.449219 199.132812 240.535156 193.453125 C 247.421875 180.789062 262.476562 178.761719 262.476562 178.761719 L 276.753906 178.203125 C 277.824219 175.011719 278.449219 173.226562 278.449219 173.226562 L 297.316406 165.601562 C 334.628906 150.519531 377.203125 166.859375 394.957031 202.976562 C 395.859375 204.8125 396.75 206.667969 397.628906 208.539062 C 406.160156 226.738281 394.425781 310.035156 401.992188 374.359375 C 409.660156 439.578125 408.113281 485.710938 408.113281 485.710938" fill="#e8e3f4"/></g><g id="change2_1"><path d="M 245.378906 109.238281 C 245.125 108.996094 244.789062 108.863281 244.4375 108.863281 C 244.058594 108.863281 243.691406 109.023438 243.433594 109.300781 C 241.898438 110.9375 239.273438 111.28125 237.335938 111.28125 C 235.453125 111.28125 233.960938 110.964844 233.945312 110.960938 C 233.847656 110.941406 233.75 110.929688 233.652344 110.929688 C 233.007812 110.929688 232.441406 111.386719 232.304688 112.015625 C 232.144531 112.753906 232.617188 113.488281 233.355469 113.652344 C 233.535156 113.691406 235.175781 114.035156 237.289062 114.035156 C 239.789062 114.035156 243.234375 113.539062 245.445312 111.183594 C 245.695312 110.914062 245.828125 110.5625 245.816406 110.195312 C 245.804688 109.828125 245.648438 109.488281 245.378906 109.238281 Z M 239.042969 75.492188 C 239.117188 75.492188 239.191406 75.484375 239.265625 75.472656 C 240.355469 75.261719 241.128906 73.574219 241.023438 71.621094 C 240.925781 69.808594 240.074219 68.441406 239.046875 68.441406 C 238.972656 68.441406 238.898438 68.449219 238.824219 68.464844 C 237.734375 68.671875 236.960938 70.363281 237.066406 72.3125 C 237.164062 74.125 238.015625 75.492188 239.042969 75.492188 Z M 116.613281 372.953125 C 124.183594 373.59375 131.429688 383.019531 131.503906 383.113281 C 131.886719 383.617188 132.605469 383.71875 133.109375 383.332031 C 133.613281 382.949219 133.714844 382.230469 133.332031 381.726562 C 133.011719 381.304688 125.402344 371.398438 116.816406 370.667969 C 113.527344 370.390625 110.546875 371.480469 107.949219 373.910156 C 98.40625 382.84375 94.988281 410.554688 94.296875 417.191406 L 32.703125 398.976562 C 32.09375 398.796875 31.457031 399.144531 31.277344 399.75 C 31.097656 400.359375 31.441406 400.996094 32.050781 401.179688 L 94.980469 419.789062 C 95.085938 419.820312 95.195312 419.835938 95.304688 419.835938 C 95.53125 419.835938 95.757812 419.769531 95.953125 419.636719 C 96.238281 419.441406 96.417969 419.128906 96.449219 418.789062 C 96.476562 418.449219 99.511719 384.953125 109.519531 375.585938 C 111.648438 373.59375 113.96875 372.726562 116.613281 372.953125 Z M 169.601562 417.5625 C 161.445312 415.929688 144.855469 412.101562 144.6875 412.058594 C 144.074219 411.917969 143.453125 412.304688 143.3125 412.921875 C 143.167969 413.539062 143.554688 414.152344 144.171875 414.296875 C 144.335938 414.335938 160.964844 418.175781 169.148438 419.8125 C 169.226562 419.828125 169.300781 419.835938 169.375 419.835938 C 169.910156 419.835938 170.390625 419.457031 170.5 418.914062 C 170.625 418.292969 170.222656 417.6875 169.601562 417.5625 Z M 141.835938 442.984375 C 142.46875 442.976562 142.980469 442.460938 142.976562 441.828125 C 142.972656 441.195312 142.460938 440.6875 141.828125 440.6875 C 141.699219 440.664062 141.542969 440.6875 141.398438 440.6875 C 124.320312 440.6875 113.617188 434.15625 113.511719 434.089844 C 112.972656 433.753906 112.265625 433.914062 111.929688 434.457031 C 111.597656 434.992188 111.757812 435.699219 112.296875 436.035156 C 112.753906 436.320312 123.617188 442.984375 141.386719 442.984375 C 141.535156 442.984375 141.6875 442.984375 141.835938 442.984375 Z M 146.328125 427.496094 C 133.300781 425.925781 116.902344 420.039062 116.738281 419.980469 C 116.144531 419.761719 115.484375 420.074219 115.269531 420.667969 C 115.050781 421.265625 115.359375 421.925781 115.957031 422.140625 C 116.125 422.199219 132.761719 428.171875 146.050781 429.777344 C 146.097656 429.78125 146.144531 429.785156 146.191406 429.785156 C 146.761719 429.785156 147.257812 429.355469 147.328125 428.773438 C 147.40625 428.144531 146.957031 427.570312 146.328125 427.496094 Z M 142.761719 451.820312 C 135.945312 451.820312 116.714844 444.8125 116.523438 444.742188 C 115.929688 444.527344 115.269531 444.832031 115.050781 445.429688 C 114.832031 446.023438 115.140625 446.683594 115.734375 446.898438 C 116.539062 447.195312 135.539062 454.117188 142.761719 454.117188 C 143.394531 454.117188 143.910156 453.601562 143.910156 452.96875 C 143.910156 452.332031 143.394531 451.820312 142.761719 451.820312 Z M 290.195312 268.046875 L 285.753906 292.84375 L 268.796875 297.441406 C 265.949219 298.210938 262.929688 297.085938 261.285156 294.628906 L 258.765625 290.867188 C 258.410156 290.339844 257.695312 290.199219 257.171875 290.550781 C 256.644531 290.902344 256.503906 291.617188 256.855469 292.144531 L 259.378906 295.90625 C 261.109375 298.492188 263.984375 299.976562 266.992188 299.976562 C 267.792969 299.976562 268.601562 299.871094 269.398438 299.65625 L 287.058594 294.867188 C 287.484375 294.753906 287.808594 294.398438 287.886719 293.964844 L 292.457031 268.453125 C 292.566406 267.828125 292.152344 267.230469 291.527344 267.117188 C 290.902344 267.003906 290.308594 267.421875 290.195312 268.046875 Z M 322.734375 377.414062 C 323.289062 377.726562 323.988281 377.523438 324.296875 376.96875 C 324.601562 376.414062 324.402344 375.71875 323.847656 375.410156 C 316.433594 371.289062 306 371.117188 303.214844 371.160156 C 301.898438 368.796875 301.597656 366.769531 302.328125 365.136719 C 303.789062 361.851562 308.90625 360.863281 308.957031 360.855469 C 308.964844 360.851562 308.972656 360.851562 308.984375 360.847656 C 309.050781 360.835938 316.0625 359.476562 325.835938 364.902344 C 326.386719 365.214844 327.085938 365.011719 327.394531 364.457031 C 327.703125 363.902344 327.503906 363.207031 326.949219 362.898438 C 318.820312 358.382812 312.484375 358.226562 309.847656 358.433594 C 308.175781 314.933594 307.78125 205.148438 325.261719 199.320312 C 325.863281 199.121094 326.1875 198.46875 325.988281 197.867188 C 325.785156 197.269531 325.140625 196.945312 324.535156 197.144531 C 314.769531 200.398438 308.96875 228.859375 307.300781 281.734375 C 306.175781 317.375 307.34375 352.671875 307.566406 358.828125 C 305.710938 359.347656 301.746094 360.8125 300.234375 364.191406 C 299.25 366.394531 299.484375 368.9375 300.9375 371.769531 L 238.261719 398.433594 C 241.578125 356.175781 245.203125 311.53125 246.792969 297.273438 C 252.003906 250.484375 275.882812 180.648438 278.257812 173.785156 L 282.515625 172.421875 L 289.960938 185.992188 L 354.734375 165.589844 L 344.578125 136.199219 C 344.578125 136.199219 340.011719 136.820312 333.316406 137.789062 C 316.109375 140.269531 284.671875 135.15625 280.550781 137.355469 C 279.054688 138.15625 268.023438 151.082031 268.023438 151.082031 C 268.023438 151.082031 261.425781 153.167969 258.441406 157.300781 C 255.457031 161.433594 252.015625 175.433594 252.015625 175.433594 L 260.019531 174.285156 L 262.476562 178.761719 C 262.476562 178.761719 198.339844 270.4375 200.628906 294.097656 C 202.917969 317.761719 213.449219 339.566406 213.449219 339.566406 L 215.601562 408.074219 L 193.046875 417.671875 C 192.464844 417.917969 192.191406 418.59375 192.441406 419.175781 C 192.625 419.613281 193.050781 419.875 193.496094 419.875 C 193.644531 419.875 193.800781 419.84375 193.945312 419.78125 L 302.816406 373.464844 C 304.441406 373.433594 315.40625 373.34375 322.734375 377.414062 Z M 338.910156 189.175781 C 338.28125 189.261719 337.84375 189.839844 337.925781 190.46875 C 338.011719 191.097656 338.59375 191.542969 339.21875 191.453125 C 339.433594 191.421875 360.898438 188.671875 375.863281 201.214844 C 384.878906 208.765625 389.765625 220.320312 390.390625 235.550781 C 390.414062 236.164062 390.921875 236.648438 391.535156 236.648438 C 391.550781 236.648438 391.566406 236.648438 391.582031 236.648438 C 392.21875 236.621094 392.710938 236.089844 392.683594 235.453125 C 392.035156 219.554688 386.871094 207.441406 377.339844 199.453125 C 361.601562 186.265625 339.828125 189.050781 338.910156 189.175781 Z M 398.757812 272.398438 C 398.132812 272.296875 397.542969 272.714844 397.4375 273.34375 C 397.414062 273.484375 395.304688 285.808594 390.789062 293.417969 C 391.976562 271.507812 392.609375 255.136719 392.683594 253.195312 C 392.707031 252.558594 392.214844 252.027344 391.582031 252.003906 C 390.964844 251.96875 390.414062 252.476562 390.390625 253.105469 C 390.335938 254.546875 384.820312 397.105469 374.621094 419.902344 C 364.582031 442.347656 212.277344 468.851562 210.742188 469.117188 C 210.117188 469.226562 209.699219 469.820312 209.804688 470.445312 C 209.902344 471.003906 210.386719 471.398438 210.9375 471.398438 C 211 471.398438 211.066406 471.390625 211.132812 471.378906 C 211.796875 471.265625 214.058594 470.871094 217.554688 470.238281 L 218.039062 485.710938 L 231.546875 485.710938 C 231.546875 485.710938 232.074219 478.6875 232.9375 467.359375 C 276.125 459.023438 368.496094 439.21875 376.71875 420.839844 C 383.453125 405.785156 388.074219 342.148438 390.550781 297.714844 C 396.851562 290.386719 399.585938 274.40625 399.703125 273.722656 C 399.804688 273.09375 399.386719 272.503906 398.757812 272.398438 Z M 291.503906 258.90625 L 260.894531 254.121094 C 260.269531 254.019531 259.679688 254.449219 259.582031 255.074219 C 259.484375 255.703125 259.914062 256.289062 260.539062 256.386719 L 291.148438 261.175781 C 291.207031 261.183594 291.269531 261.191406 291.328125 261.191406 C 291.882812 261.191406 292.371094 260.785156 292.460938 260.21875 C 292.558594 259.59375 292.128906 259.003906 291.503906 258.90625 Z M 397.109375 207.445312 C 397.039062 207.292969 396.957031 207.148438 396.886719 206.996094 C 397.128906 207.511719 397.382812 208.015625 397.625 208.53125 C 397.453125 208.167969 397.28125 207.804688 397.109375 207.445312 Z M 143.765625 92.832031 C 144.175781 96.886719 147.773438 100.167969 151.804688 100.167969 C 155.835938 100.167969 158.769531 96.886719 158.359375 92.832031 C 157.953125 88.78125 154.351562 85.496094 150.320312 85.496094 C 146.289062 85.496094 143.355469 88.78125 143.765625 92.832031 Z M 113.132812 238.792969 C 112.5 238.792969 111.984375 239.308594 111.984375 239.941406 C 111.984375 240.574219 112.5 241.089844 113.132812 241.089844 L 123.921875 241.089844 C 124.554688 241.089844 125.070312 240.574219 125.070312 239.941406 C 125.070312 239.308594 124.554688 238.792969 123.921875 238.792969 Z M 111.449219 221.804688 L 132.417969 221.804688 C 133.050781 221.804688 133.5625 221.289062 133.5625 220.65625 C 133.5625 220.023438 133.050781 219.511719 132.417969 219.511719 L 111.449219 219.511719 C 110.816406 219.511719 110.300781 220.023438 110.300781 220.65625 C 110.300781 221.289062 110.816406 221.804688 111.449219 221.804688 Z M 111.449219 212.394531 L 141.042969 212.394531 C 141.679688 212.394531 142.191406 211.878906 142.191406 211.246094 C 142.191406 210.613281 141.679688 210.097656 141.042969 210.097656 L 111.449219 210.097656 C 110.816406 210.097656 110.300781 210.613281 110.300781 211.246094 C 110.300781 211.878906 110.816406 212.394531 111.449219 212.394531 Z M 100.910156 127.273438 C 100.285156 127.222656 99.730469 127.699219 99.683594 128.332031 C 99.636719 128.964844 100.109375 129.515625 100.742188 129.5625 L 117.21875 130.796875 C 117.246094 130.800781 117.273438 130.800781 117.304688 130.800781 C 117.898438 130.800781 118.402344 130.339844 118.449219 129.738281 C 118.496094 129.105469 118.019531 128.554688 117.386719 128.507812 Z M 122.699219 125.085938 C 123.292969 125.085938 123.796875 124.625 123.84375 124.023438 C 123.890625 123.390625 123.414062 122.839844 122.785156 122.792969 L 100.289062 121.109375 C 99.660156 121.050781 99.105469 121.535156 99.058594 122.167969 C 99.011719 122.800781 99.484375 123.351562 100.117188 123.398438 L 122.613281 125.082031 C 122.640625 125.085938 122.671875 125.085938 122.699219 125.085938 Z M 98.566406 106.335938 L 115.097656 107.824219 C 115.132812 107.828125 115.164062 107.832031 115.199219 107.832031 C 115.789062 107.832031 116.289062 107.382812 116.34375 106.785156 C 116.398438 106.15625 115.933594 105.597656 115.300781 105.539062 L 98.773438 104.046875 C 98.15625 104 97.585938 104.457031 97.527344 105.089844 C 97.46875 105.71875 97.9375 106.277344 98.566406 106.335938 Z M 115.890625 101.863281 C 116.457031 101.863281 116.949219 101.441406 117.023438 100.867188 C 117.109375 100.238281 116.667969 99.660156 116.039062 99.578125 L 97.902344 97.164062 C 97.269531 97.082031 96.699219 97.523438 96.613281 98.152344 C 96.53125 98.78125 96.972656 99.359375 97.601562 99.441406 L 115.734375 101.851562 C 115.789062 101.859375 115.839844 101.863281 115.890625 101.863281 Z M 170.460938 193.21875 L 167.554688 168.117188 L 146.097656 167.503906 L 149.492188 192.816406 Z M 108.667969 192.039062 L 121.402344 192.28125 L 114.859375 137.257812 L 103.351562 136.230469 Z M 164.492188 141.695312 L 142.375 139.71875 L 143.757812 150.046875 L 165.648438 151.683594 Z M 145.789062 165.199219 L 167.285156 165.8125 L 165.917969 154.003906 L 144.070312 152.371094 Z M 120.679688 166.773438 L 123.71875 192.324219 L 147.171875 192.773438 L 143.773438 167.4375 Z M 143.464844 165.132812 L 141.730469 152.195312 L 118.742188 150.476562 L 120.40625 164.472656 Z M 118.464844 148.15625 L 141.417969 149.871094 L 140.027344 139.507812 L 117.195312 137.46875 Z M 166.664062 140.503906 L 172.890625 194.257812 C 172.929688 194.585938 172.824219 194.914062 172.601562 195.160156 C 172.382812 195.402344 172.074219 195.535156 171.753906 195.535156 C 171.746094 195.535156 171.738281 195.535156 171.730469 195.535156 L 107.601562 194.3125 C 107.015625 194.304688 106.535156 193.855469 106.480469 193.273438 L 100.9375 135.070312 C 100.90625 134.734375 101.023438 134.394531 101.265625 134.152344 C 101.507812 133.914062 101.847656 133.792969 102.179688 133.820312 L 165.628906 139.492188 C 166.171875 139.542969 166.601562 139.964844 166.664062 140.503906 Z M 97.621094 93.933594 L 123.789062 97.003906 C 123.832031 97.007812 123.878906 97.011719 123.921875 97.011719 C 124.496094 97.011719 124.992188 96.578125 125.0625 95.996094 C 125.136719 95.367188 124.683594 94.796875 124.054688 94.722656 L 97.886719 91.65625 C 97.261719 91.574219 96.6875 92.03125 96.613281 92.660156 C 96.539062 93.289062 96.988281 93.859375 97.621094 93.933594 Z M 142.746094 73.167969 C 140.679688 70.296875 135.917969 69.609375 135.917969 69.609375 C 135.917969 69.609375 133.582031 61.910156 127.824219 60.425781 C 120.707031 58.589844 120.9375 66.519531 120.9375 66.519531 C 120.9375 66.519531 113.054688 65.660156 111.183594 68.003906 C 109.308594 70.347656 109.078125 76.933594 109.078125 76.933594 L 147.097656 81.53125 C 147.097656 81.53125 144.707031 75.894531 142.746094 73.167969 Z M 225.023438 33.324219 C 222.421875 26.351562 222.816406 18.195312 229.96875 9.496094 C 246.792969 -10.964844 262.5625 8.179688 282.542969 7.128906 C 302.519531 6.078125 330.90625 12.386719 340.109375 26.84375 C 349.308594 41.300781 327.226562 100.183594 327.226562 100.183594 C 327.226562 100.183594 332.746094 113.324219 344.578125 110.695312 C 344.578125 112.011719 335.375 123.050781 318.816406 117.792969 C 304.652344 131.699219 281.660156 122.394531 275.878906 110.300781 C 270.09375 98.210938 246.746094 62.941406 247.15625 65.167969 C 247.273438 65.792969 246.859375 66.390625 246.238281 66.507812 C 246.167969 66.519531 246.097656 66.523438 246.027344 66.523438 C 245.484375 66.523438 245 66.140625 244.898438 65.585938 C 244.035156 60.902344 239.539062 58.90625 239.496094 58.886719 C 238.914062 58.632812 238.648438 57.957031 238.898438 57.375 C 239.027344 57.085938 239.257812 56.871094 239.53125 56.765625 C 236.046875 53.320312 234.4375 48.660156 234.4375 48.660156 L 234.4375 59.964844 C 226.453125 53.863281 225.160156 40.070312 225.023438 33.324219" fill="#15253d"/></g><g id="change3_1"><path d="M 158.265625 141.140625 C 160.359375 143.75 162.796875 146.195312 165.226562 148.03125 C 166.066406 148.664062 166.90625 149.226562 167.730469 149.695312 C 168.507812 150.140625 169.273438 150.507812 170.011719 150.769531 C 170.011719 150.769531 169.953125 160.703125 173.480469 170.203125 C 174.957031 174.1875 177.070312 178.082031 180.074219 181.152344 L 182.96875 204.734375 L 200.628906 191.359375 C 200.628906 191.359375 192.898438 160.722656 190.320312 153.234375 C 187.742188 145.75 173.707031 129.261719 173.707031 129.261719 L 175 139.796875 C 173.683594 138.59375 171.476562 136.628906 168.945312 134.554688 C 162.828125 129.539062 154.820312 123.894531 152.882812 126.890625 C 151.363281 129.242188 153.1875 133.988281 156.421875 138.671875 C 156.996094 139.5 157.617188 140.328125 158.265625 141.140625 Z M 193.496094 419.875 C 193.050781 419.875 192.625 419.613281 192.441406 419.175781 C 192.28125 418.800781 192.355469 418.394531 192.570312 418.082031 C 188.785156 415.445312 174.25 405.414062 167.996094 402.160156 C 158.390625 397.15625 138.992188 400.09375 138.992188 400.09375 L 143.582031 412.429688 C 143.855469 412.125 144.265625 411.964844 144.6875 412.058594 C 144.855469 412.101562 161.445312 415.929688 169.601562 417.5625 C 170.222656 417.6875 170.625 418.292969 170.5 418.914062 C 170.390625 419.457031 169.910156 419.835938 169.375 419.835938 C 169.300781 419.835938 169.226562 419.828125 169.148438 419.8125 C 160.964844 418.175781 144.335938 414.335938 144.171875 414.296875 C 143.839844 414.222656 143.585938 414.003906 143.433594 413.726562 C 140.226562 413.292969 126.210938 411.570312 120.9375 413.601562 C 116.863281 415.164062 116.261719 418.25 116.253906 419.917969 C 116.414062 419.90625 116.578125 419.921875 116.738281 419.980469 C 116.902344 420.039062 133.300781 425.925781 146.328125 427.496094 C 146.957031 427.570312 147.40625 428.144531 147.328125 428.773438 C 147.257812 429.355469 146.761719 429.785156 146.191406 429.785156 C 146.144531 429.785156 146.097656 429.78125 146.050781 429.777344 C 132.761719 428.171875 116.125 422.199219 115.957031 422.140625 C 115.589844 422.003906 115.351562 421.699219 115.257812 421.347656 C 112.824219 422.054688 107.132812 424.1875 107.28125 428.636719 C 107.359375 431.066406 110.347656 433.390625 111.933594 434.453125 C 112.269531 433.914062 112.972656 433.753906 113.511719 434.089844 C 113.617188 434.15625 124.320312 440.6875 141.398438 440.6875 C 141.542969 440.6875 141.699219 440.664062 141.828125 440.6875 C 142.460938 440.6875 142.972656 441.195312 142.976562 441.828125 C 142.980469 442.460938 142.46875 442.976562 141.835938 442.984375 C 141.6875 442.984375 141.535156 442.984375 141.386719 442.984375 C 124.523438 442.984375 113.894531 436.992188 112.464844 436.136719 C 112.019531 437.40625 111.480469 439.625 112.101562 441.835938 C 112.371094 442.800781 113.804688 443.851562 115.585938 444.824219 C 115.867188 444.671875 116.203125 444.625 116.523438 444.742188 C 116.714844 444.8125 135.945312 451.820312 142.761719 451.820312 C 143.394531 451.820312 143.910156 452.332031 143.910156 452.96875 C 143.910156 453.601562 143.394531 454.117188 142.761719 454.117188 C 138.40625 454.117188 129.769531 451.601562 123.421875 449.535156 L 123.269531 449.820312 C 122.195312 451.84375 123.277344 454.34375 125.488281 454.941406 L 151.535156 462.457031 C 154.628906 463.351562 157.785156 463.957031 160.964844 464.304688 C 166.726562 464.933594 172.570312 464.671875 178.285156 463.488281 L 201.46875 458.695312 L 206.664062 457.621094 L 193.859375 419.800781 C 193.738281 419.839844 193.617188 419.875 193.496094 419.875 Z M 267.265625 152.605469 L 268.109375 176.980469 L 271.273438 175.976562 C 271.359375 175.371094 272.921875 164.851562 275.523438 156.628906 C 275.316406 156.789062 275.121094 156.957031 274.910156 157.109375 Z M 247.15625 65.167969 C 246.070312 59.296875 240.640625 56.878906 240.410156 56.777344 C 239.828125 56.527344 239.152344 56.792969 238.898438 57.375 C 238.648438 57.957031 238.914062 58.632812 239.496094 58.886719 C 239.539062 58.90625 244.035156 60.902344 244.898438 65.585938 C 245 66.140625 245.484375 66.523438 246.027344 66.523438 C 246.097656 66.523438 246.167969 66.519531 246.238281 66.507812 C 246.859375 66.390625 247.273438 65.792969 247.15625 65.167969 Z M 245.222656 109.402344 C 244.761719 108.96875 244.035156 108.992188 243.601562 109.457031 C 240.652344 112.605469 233.960938 111.199219 233.894531 111.183594 C 233.28125 111.050781 232.664062 111.441406 232.53125 112.0625 C 232.394531 112.683594 232.785156 113.292969 233.40625 113.429688 C 233.550781 113.460938 235.183594 113.804688 237.289062 113.804688 C 239.871094 113.804688 243.160156 113.285156 245.277344 111.027344 C 245.710938 110.5625 245.6875 109.835938 245.222656 109.402344 Z M 237.296875 72.300781 C 237.394531 74.113281 238.257812 75.429688 239.222656 75.246094 C 240.1875 75.0625 240.890625 73.445312 240.792969 71.632812 C 240.695312 69.824219 239.832031 68.503906 238.867188 68.691406 C 237.902344 68.875 237.199219 70.492188 237.296875 72.300781 Z M 284.390625 146.023438 C 269.976562 149.898438 248.234375 142.515625 248.222656 142.515625 C 245.113281 141.492188 241.800781 140.230469 238.425781 138.675781 C 231.152344 135.316406 230.710938 119.390625 232.296875 101.570312 C 223.980469 92.347656 234.4375 82.925781 235.660156 74.277344 C 236.691406 66.988281 237.644531 60.359375 238.140625 55.226562 C 238.265625 53.929688 238.363281 52.722656 238.425781 51.628906 C 238.449219 51.226562 238.507812 50.832031 238.550781 50.433594 C 242.777344 53.824219 246.304688 55.761719 246.519531 55.804688 C 259.128906 58.214844 268.347656 49.714844 268.347656 49.714844 L 266.132812 57.613281 C 263.734375 66.160156 264.402344 75.277344 268.023438 83.382812 L 272.242188 81.976562 C 274.140625 77.453125 278.609375 74.277344 283.824219 74.277344 C 290.757812 74.277344 296.378906 79.898438 296.378906 86.835938 C 296.378906 93.523438 291.148438 98.976562 284.554688 99.355469 C 285.40625 101.851562 286.390625 104.363281 287.535156 106.753906 C 293.320312 118.847656 303.832031 120.949219 303.832031 120.949219 L 302.257812 112.535156 C 302.257812 112.535156 302.257812 112.535156 318.816406 117.792969 C 321.261719 118.570312 323.539062 118.984375 325.65625 119.132812 L 333.324219 137.785156 C 318.765625 139.886719 294.121094 143.597656 284.390625 146.023438 Z M 266.21875 146.605469 C 263.867188 146.332031 256.839844 145.347656 248.238281 142.519531 C 256.847656 145.347656 263.875 146.335938 266.21875 146.605469 Z M 266.253906 146.609375 C 266.585938 146.644531 266.816406 146.667969 266.941406 146.679688 C 266.816406 146.667969 266.585938 146.644531 266.253906 146.609375" fill="#f35f43"/></g><g id="change4_1"><path d="M 287.566406 127.710938 L 287.214844 125.007812 C 277.410156 143.710938 248.234375 142.515625 248.222656 142.515625 C 248.226562 142.515625 248.230469 142.519531 248.238281 142.519531 C 256.839844 145.347656 263.867188 146.332031 266.21875 146.605469 C 266.230469 146.605469 266.238281 146.605469 266.253906 146.609375 C 266.585938 146.644531 266.816406 146.667969 266.941406 146.679688 C 266.972656 146.683594 266.980469 146.683594 266.996094 146.6875 C 267.023438 146.6875 267.054688 146.691406 267.054688 146.691406 L 267.058594 146.691406 L 267.222656 151.367188 L 267.265625 152.605469 L 267.605469 162.421875 L 274.910156 157.109375 C 275.121094 156.957031 275.316406 156.789062 275.523438 156.628906 C 276.960938 152.09375 278.710938 148.265625 280.710938 147.199219 C 281.34375 146.863281 282.621094 146.464844 284.390625 146.023438 C 287.222656 140.476562 288.394531 134.109375 287.566406 127.710938 Z M 182.96875 204.734375 L 180.074219 181.152344 C 177.070312 178.082031 174.957031 174.1875 173.480469 170.203125 L 184.027344 253.148438 L 107.347656 253.148438 L 89.804688 71.394531 L 109.335938 74 C 109.488281 72.839844 109.722656 71.507812 110.082031 70.328125 L 87.066406 67.257812 C 84.21875 66.878906 81.757812 69.238281 82.011719 72.097656 L 98.902344 260.582031 C 99.109375 262.894531 101.042969 264.660156 103.363281 264.660156 L 185.261719 264.660156 C 187.394531 264.660156 189.128906 263.167969 189.59375 261.222656 C 189.714844 260.714844 189.773438 260.1875 189.703125 259.636719 Z M 162.140625 81.039062 L 168.945312 134.554688 C 171.476562 136.628906 173.683594 138.59375 175 139.796875 L 173.707031 129.261719 L 167.835938 81.40625 C 167.585938 79.382812 166.003906 77.78125 163.984375 77.515625 L 143.800781 74.824219 C 144.558594 76.128906 145.304688 77.621094 145.898438 78.875 Z M 235.660156 74.277344 C 234.4375 82.925781 233.105469 92.492188 232.296875 101.570312 C 230.285156 100.582031 225.757812 98.0625 224.871094 94.960938 C 223.726562 90.953125 235.660156 74.277344 235.660156 74.277344" fill="#f14544"/></g></g></svg>